<?xml version="1.0" standalone="no"?>
<!DOCTYPE svg PUBLIC "-//W3C//DTD SVG 20010904//EN"
 "http://www.w3.org/TR/2001/REC-SVG-20010904/DTD/svg10.dtd">
<svg version="1.0" xmlns="http://www.w3.org/2000/svg"
 width="512.000000pt" height="512.000000pt" viewBox="0 0 512.000000 512.000000"
 preserveAspectRatio="xMidYMid meet">

<g transform="translate(0.000000,512.000000) scale(0.100000,-0.100000)"
fill="#000000" stroke="none">
<path d="M1285 4871 c-121 -56 -152 -212 -62 -309 12 -13 520 -357 1129 -764
l1107 -741 -6 -103 c-5 -81 -2 -113 11 -156 21 -62 65 -113 121 -139 22 -10
238 -73 480 -140 388 -108 449 -123 520 -123 70 -1 86 2 127 26 84 50 138 142
138 234 0 81 -54 177 -122 220 -21 14 -144 54 -284 93 -239 67 -248 70 -330
126 -46 32 -84 59 -84 61 0 1 18 90 40 198 58 285 57 303 -46 512 -49 101 -77
145 -118 187 -89 90 -211 135 -336 123 -78 -7 -140 -30 -314 -118 l-130 -65
230 -153 c126 -84 231 -154 233 -156 5 -5 -29 -178 -39 -193 -5 -9 -313 191
-1046 679 -571 381 -1053 699 -1071 706 -45 19 -100 17 -148 -5z"/>
<path d="M4493 4614 c-261 -44 -443 -313 -389 -574 22 -106 59 -175 135 -251
220 -220 576 -188 752 67 180 261 56 637 -244 741 -65 23 -177 30 -254 17z"/>
<path d="M2245 3556 c-185 -121 -283 -366 -229 -571 45 -174 119 -251 537
-554 170 -123 307 -224 305 -225 -2 -2 -187 -159 -412 -350 l-408 -348 -892
307 c-490 169 -912 310 -938 312 -94 10 -189 -67 -204 -164 -9 -61 9 -117 54
-165 37 -39 62 -48 2232 -795 1207 -416 2214 -761 2238 -766 68 -17 117 3 331
131 212 128 245 158 257 239 9 58 -8 114 -49 160 -39 45 -82 63 -147 63 -58 0
-78 -9 -245 -110 -64 -38 -122 -70 -129 -70 -12 0 -1787 607 -1792 613 -1 1
169 146 379 322 451 379 515 438 547 501 52 105 34 256 -41 347 -17 20 -143
119 -280 218 -137 100 -247 185 -244 189 2 4 43 25 90 46 47 21 85 41 85 44
-1 6 -982 660 -990 659 -3 0 -27 -15 -55 -33z"/>
</g>
</svg>
